<svg width="180" height="180" viewBox="0 0 180 180" fill="none" xmlns="http://www.w3.org/2000/svg">
<path d="M105.72 62C105.72 75.8339 105.586 91.0877 99.9562 102.89C97.15 108.773 92.9809 113.789 86.7763 117.34C80.5664 120.894 72.283 123 61.2199 123C47.6547 123 37.6147 114.688 30.9401 102.86C24.2625 91.0262 21 75.7398 21 62C21 48.2821 25.0021 34.3865 32.4125 23.9338C39.8167 13.49 50.6063 6.5 64.2199 6.5C77.8289 6.5 88.1853 13.485 95.1595 23.9224C102.142 34.3725 105.72 48.2706 105.72 62Z" fill="url(#paint0_radial_3_62)" stroke="#BB8F00"/>
<path d="M153.236 86.4448L153.233 86.4618L153.23 86.479C152.971 88.1974 152.727 89.8998 152.486 91.5793C151.766 96.5918 151.076 101.4 150.122 105.819C148.848 111.716 147.117 116.851 144.267 120.777C141.432 124.684 137.472 127.418 131.673 128.492C125.852 129.571 118.158 128.98 107.873 126.172C101.263 124.367 96.5493 121.916 93.2444 118.861C89.9463 115.813 88.0221 112.136 87.0333 107.823C86.0419 103.5 85.9908 98.5361 86.451 92.9269C86.8786 87.7141 87.7444 81.9757 88.6905 75.7058C88.7625 75.229 88.8349 74.7491 88.9076 74.2662L88.9168 74.2053L88.9109 74.144C87.5377 59.8145 88.7493 46.5889 93.6398 37.479C96.0793 32.9349 99.4277 29.4256 103.823 27.2978C108.219 25.1693 113.706 24.4025 120.456 25.4188L120.481 25.4227L120.507 25.4238C137.228 26.1864 147.259 32.8552 152.21 43.5325C157.187 54.2662 157.082 69.156 153.236 86.4448Z" fill="url(#paint1_radial_3_62)" stroke="#BB8F00"/>
<path d="M143.5 164.5C156.5 152.5 160 76.5 160 76.5H88.5H18C18 76.5 24.5 153.5 37 164.5C49.5 175.5 130.5 176.5 143.5 164.5Z" fill="#FFFFE2" stroke="#886800"/>
<circle cx="52.25" cy="17.75" r="0.25" fill="#5C4700"/>
<circle cx="107.25" cy="47.75" r="0.25" fill="#5C4700"/>
<circle cx="109.25" cy="35.75" r="0.25" fill="#5C4700"/>
<circle cx="81.25" cy="56.75" r="0.25" fill="#5C4700"/>
<circle cx="97.25" cy="64.75" r="0.25" fill="#5C4700"/>
<circle cx="142.25" cy="65.75" r="0.25" fill="#5C4700"/>
<circle cx="132.25" cy="62.75" r="0.25" fill="#5C4700"/>
<circle cx="132.25" cy="69.75" r="0.25" fill="#5C4700"/>
<circle cx="129.25" cy="71.75" r="0.25" fill="#5C4700"/>
<circle cx="123.25" cy="71.75" r="0.25" fill="#5C4700"/>
<circle cx="109.25" cy="67.75" r="0.25" fill="#5C4700"/>
<circle cx="115.25" cy="54.75" r="0.25" fill="#5C4700"/>
<circle cx="139.25" cy="55.75" r="0.25" fill="#5C4700"/>
<circle cx="122.25" cy="49.75" r="0.25" fill="#5C4700"/>
<circle cx="129.25" cy="41.75" r="0.25" fill="#5C4700"/>
<circle cx="54.25" cy="66.75" r="0.25" fill="#5C4700"/>
<circle cx="33.25" cy="59.75" r="0.25" fill="#5C4700"/>
<circle cx="79.25" cy="37.75" r="0.25" fill="#5C4700"/>
<circle cx="53.25" cy="22.75" r="0.25" fill="#5C4700"/>
<circle cx="61.25" cy="34.75" r="0.25" fill="#5C4700"/>
<circle cx="67.25" cy="62.75" r="0.25" fill="#5C4700"/>
<circle cx="43.25" cy="51.75" r="0.25" fill="#5C4700"/>
<circle cx="69.25" cy="47.75" r="0.25" fill="#5C4700"/>
<circle cx="54.25" cy="37.75" r="0.25" fill="#5C4700"/>
<circle cx="38.25" cy="31.75" r="0.25" fill="#5C4700"/>
<circle cx="65.25" cy="25.75" r="0.25" fill="#5C4700"/>
<defs>
<radialGradient id="paint0_radial_3_62" cx="0" cy="0" r="1" gradientUnits="userSpaceOnUse" gradientTransform="translate(56.25 58.25) rotate(89.3648) scale(112.757 89.7257)">
<stop stop-color="#FFEB7A"/>
<stop offset="1" stop-color="#C29929"/>
</radialGradient>
<radialGradient id="paint1_radial_3_62" cx="0" cy="0" r="1" gradientUnits="userSpaceOnUse" gradientTransform="translate(112.537 63.4133) rotate(97.9272) scale(112.757 89.7257)">
<stop stop-color="#FFEB7A"/>
<stop offset="1" stop-color="#C29929"/>
</radialGradient>
</defs>
</svg>
